PathFileType	4	(X/Y/Z)	C:\Users\Basilio\Documents\Thesis Gigler\squatting_fais\c3dfiles\040\SLS_pre_front4\markers_experimental.trc
DataRate	CameraRate	NumFrames	NumMarkers	Units	OrigDataRate	OrigDataStartFrame	OrigNumFrames
200.000000	200.000000	4	62	mm	200.000000	0	1372
Frame#	Time	FHD			LBHD			RBHD			C7			T10			CLAV			LSHO			LUUPA			LMUPA			LDUPA			LLEP			LMEP			LRAD			LUL			LRFIN			RSHO			RUPA1			RMUPA			RDUPA			RLEP			RMEP			RRAD			RUL			RUFIN			LASI			RASI			USACR			LSACR			RSACR			LTHI1			LTHI2			LTHI3			LTHI4			LLFC			LMFC			LTIB1			LTIB2			LTIB3			LTIB4			LLMAL			LMMAL			LHEE			LMT1			LMT2			LMT5			RTHI			RTHI2			RTHI3			RTHI4			RLFC			RMFC			RTIB1			RTIB2			RTIB3			RTIB4			RLMAL			RMMAL			RHEE			RMT1			RMT2			RMT5			*61			
		X1	Y1	Z1	X2	Y2	Z2	X3	Y3	Z3	X4	Y4	Z4	X5	Y5	Z5	X6	Y6	Z6	X7	Y7	Z7	X8	Y8	Z8	X9	Y9	Z9	X10	Y10	Z10	X11	Y11	Z11	X12	Y12	Z12	X13	Y13	Z13	X14	Y14	Z14	X15	Y15	Z15	X16	Y16	Z16	X17	Y17	Z17	X18	Y18	Z18	X19	Y19	Z19	X20	Y20	Z20	X21	Y21	Z21	X22	Y22	Z22	X23	Y23	Z23	X24	Y24	Z24	X25	Y25	Z25	X26	Y26	Z26	X27	Y27	Z27	X28	Y28	Z28	X29	Y29	Z29	X30	Y30	Z30	X31	Y31	Z31	X32	Y32	Z32	X33	Y33	Z33	X34	Y34	Z34	X35	Y35	Z35	X36	Y36	Z36	X37	Y37	Z37	X38	Y38	Z38	X39	Y39	Z39	X40	Y40	Z40	X41	Y41	Z41	X42	Y42	Z42	X43	Y43	Z43	X44	Y44	Z44	X45	Y45	Z45	X46	Y46	Z46	X47	Y47	Z47	X48	Y48	Z48	X49	Y49	Z49	X50	Y50	Z50	X51	Y51	Z51	X52	Y52	Z52	X53	Y53	Z53	X54	Y54	Z54	X55	Y55	Z55	X56	Y56	Z56	X57	Y57	Z57	X58	Y58	Z58	X59	Y59	Z59	X60	Y60	Z60	X61	Y61	Z61	X62	Y62	Z62	

1	0	-139.0529327392578	1777.866577148438	-1043.859130859375	-265.5870361328126	1741.022705078125	-1092.967041015625	-327.7756347656251	1704.529418945313	-964.2738037109377	-342.6744995117188	1577.420776367188	-1013.401245117188	-386.017791748047	1259.561645507813	-1003.146423339844	-220.5917510986329	1499.574340820313	-1012.391845703125	-286.7626342773438	1535.639282226563	-1186.555053710938	-327.4049377441407	1324.008422851563	-1260.545654296875	-287.9235839843751	1298.383544921875	-1249.010131835938	-329.8355712890626	1255.18408203125	-1263.5263671875	-342.8965759277344	1192.774169921875	-1255.581420898438	-355.3348999023438	1185.577880859375	-1189.45849609375	-196.4905242919922	947.377624511719	-1247.322875976563	-255.4405517578126	937.8690185546877	-1295.87841796875	-168.1245880126953	864.5479125976565	-1277.973510742188	-274.9671630859376	1519.098510742188	-837.3862304687502	-347.6734008789063	1313.7197265625	-757.0202636718751	-308.0525512695313	1286.836303710938	-762.4063720703126	-351.7919921875001	1245.210693359375	-753.3559570312501	-349.1075744628907	1181.00341796875	-750.8682861328126	-367.8587951660157	1170.169677734375	-825.9697265625002	-181.1636810302735	944.329040527344	-769.937927246094	-244.6608123779297	921.0395507812502	-737.5258178710939	-146.284423828125	862.7176513671877	-743.0754394531251	-215.845687866211	1079.8994140625	-1121.0966796875	-206.1969299316407	1080.519287109375	-888.429626464844	-395.8418579101564	1125.512817382813	-996.8583984375002	-404.9019165039064	1096.442138671875	-1025.295532226563	-402.9242553710939	1095.597534179688	-969.3110351562502	-348.1332397460938	827.7136840820315	-1176.784790039063	-311.3364562988282	750.3522949218751	-1181.457153320313	-264.6258239746094	753.3433227539064	-1184.34521484375	-335.3236389160157	698.1340942382814	-1167.886352539063	-323.0187072753907	563.9934082031251	-1155.34130859375	-318.7450561523438	546.4950561523439	-1022.992614746094	-282.7680358886719	342.2135620117188	-1113.789184570313	-354.5815124511719	301.2201843261719	-1146.609497070313	-310.6527099609376	295.9177246093751	-1136.563842773438	-297.3225708007813	218.8325653076172	-1100.539794921875	-355.8414306640626	127.1006240844727	-1104.788208007813	-318.6773071289063	144.049057006836	-1026.735107421875	-413.6736450195314	97.27497863769534	-1049.271118164063	-199.0677337646485	61.017391204834	-1050.909423828125	-205.1147003173829	53.16402816772462	-1096.73486328125	-261.5183715820313	38.29742050170899	-1137.828125	-283.0520629882813	813.0137329101565	-824.2461547851565	-252.7792968750001	754.4923095703126	-828.2482910156252	-219.7778472900391	754.4488525390626	-832.612243652344	-287.4629516601563	679.8791503906251	-844.935485839844	-291.9578857421876	543.8012695312501	-859.117126464844	-279.2062377929688	540.3244018554689	-992.3469238281252	-250.2025604248047	356.0610656738282	-887.303161621094	-324.7917785644532	281.6846008300782	-870.2200927734377	-279.3821105957032	275.6660766601563	-877.5634765625002	-263.4766845703126	230.4031372070313	-911.9935302734377	-319.3124084472657	120.5693588256836	-900.6519165039065	-294.8873901367188	135.898910522461	-985.268493652344	-378.1107788085938	87.62699127197267	-961.3354492187502	-160.1952056884766	57.52539443969728	-963.6674804687502	-166.7510986328125	56.49456024169923	-924.2891845703127	-211.7156524658204	35.01549911499024	-873.649597167969	nan	nan	nan	
2	0.005	-137.492919921875	1777.146484375	-1043.6181640625	-265.2129821777344	1740.999145507813	-1092.853759765625	-327.6065368652344	1704.561401367188	-964.2229614257815	-342.5297546386719	1577.41162109375	-1013.404113769531	-385.8054199218751	1259.500122070313	-1003.183898925781	-220.4561462402344	1499.5654296875	-1012.189636230469	-286.4405212402344	1535.684936523438	-1186.531982421875	-327.9109802246094	1324.224853515625	-1260.776489257813	-288.5866394042969	1298.452026367188	-1249.371826171875	-330.7078552246094	1255.391357421875	-1263.864135742188	-343.9923095703126	1193.114135742188	-1256.098022460938	-356.1805114746094	1185.778198242188	-1189.893310546875	-198.2520141601563	946.391052246094	-1248.890502929688	-258.0160522460938	938.019958496094	-1297.347045898438	-171.4148101806641	863.9090576171877	-1279.629760742188	-275.0259704589844	1519.133178710938	-837.272399902344	-348.0540771484376	1313.740966796875	-757.1489868164064	-308.5929565429688	1286.825317382813	-762.4862060546876	-352.2356872558594	1245.2275390625	-753.5699462890626	-349.6302490234376	1180.401489257813	-750.6716918945314	-368.3188781738282	1170.330322265625	-826.2615966796877	-181.950439453125	944.2576904296877	-769.8428955078127	-245.3467102050782	921.0036621093752	-737.5898437500001	-147.0634155273438	862.6556396484377	-743.0120239257814	-215.7013854980469	1079.8466796875	-1121.0048828125	-206.4018249511719	1080.364013671875	-888.4055786132815	-395.7521972656251	1125.595703125	-996.8719482421877	-403.6236267089845	1095.113525390625	-1025.103393554688	-400.4545898437501	1093.844116210938	-968.794616699219	-348.0423278808594	827.7305908203127	-1176.799682617188	-311.2084655761719	750.3377075195314	-1181.477661132813	-264.5275573730469	753.2097167968751	-1184.311889648438	-335.2600097656251	698.1064453125001	-1167.907836914063	-323.0502929687501	564.0202026367189	-1155.318481445313	-318.2148132324219	546.6234130859376	-1023.512084960938	-282.7710571289063	342.2622680664063	-1113.758422851563	-354.6017456054688	301.2131652832032	-1146.590087890625	-310.7057495117188	295.9059143066407	-1136.560302734375	-297.3117370605469	218.8385467529297	-1100.53369140625	-355.8255920410157	127.0932998657227	-1104.787719726563	-319.8142089843751	144.1584625244141	-1027.186157226563	-413.6410522460939	97.29029846191409	-1049.2880859375	-199.1815948486329	61.05027389526369	-1050.89599609375	-204.838363647461	54.11392211914064	-1096.641723632813	-261.4941406250001	38.33591461181641	-1137.835327148438	-283.0721130371094	813.010192871094	-824.1791992187502	-252.8778533935547	754.5120849609376	-828.2224731445315	-220.0875396728516	754.2265014648439	-833.6409301757815	-287.4882202148438	679.8964233398439	-844.9191894531252	-291.9781494140626	543.7470092773439	-859.0734863281252	-279.2813415527344	540.3446655273439	-992.2714843750002	-250.2498626708985	356.0520629882813	-887.245056152344	-324.8878173828126	281.7250061035157	-870.1770629882815	-279.4622192382813	275.6583862304688	-877.4553833007815	-263.4695434570313	230.3865661621094	-911.9341430664065	-319.9760437011719	120.2006988525391	-901.0723876953127	-294.8539733886719	135.8950958251953	-985.1956176757815	-378.1091613769532	87.61125946044923	-961.3274536132815	-160.1476440429688	57.16980743408205	-963.756774902344	-166.6867828369141	56.75712203979494	-924.1059570312502	-211.7269897460938	34.94580841064454	-873.6389770507815	nan	nan	nan	
3	0.01	-138.3194885253907	1777.671875	-1043.460693359375	-264.9156799316407	1741.009521484375	-1092.7412109375	-327.4799194335938	1704.599609375	-964.187927246094	-342.4176635742188	1577.41455078125	-1013.406127929688	-385.0654907226564	1259.92822265625	-1002.945922851563	-220.2558135986329	1499.527465820313	-1012.01416015625	-286.0889892578126	1535.682006835938	-1186.550415039063	-329.1716003417969	1324.414428710938	-1260.488037109375	-289.4558410644532	1298.53125	-1249.597778320313	-331.6332092285157	1255.66259765625	-1264.289916992188	-345.0472106933594	1193.431518554688	-1256.555419921875	-357.0780029296876	1185.994018554688	-1190.332885742188	-201.1671752929688	946.3167114257815	-1250.339721679688	-260.5572814941407	938.396667480469	-1299.473022460938	-174.3539123535157	863.392761230469	-1281.455444335938	-275.1170349121094	1519.18994140625	-837.0871582031252	-348.3542785644532	1313.79443359375	-757.2635498046876	-309.9422607421876	1286.555297851563	-763.0271606445314	-352.8851928710938	1245.2734375	-753.7357788085939	-350.0039978027344	1180.378295898438	-751.0010375976564	-368.6216125488282	1170.3935546875	-826.4760742187502	-182.8322448730469	943.9905395507815	-769.6525878906252	-246.0581970214844	920.8483886718752	-737.6337280273439	-148.0956420898438	862.599792480469	-742.7761840820314	-215.5199890136719	1079.833374023438	-1120.9619140625	-206.4200286865235	1080.299560546875	-888.3463134765627	-395.5848693847657	1125.614624023438	-996.9510498046877	-404.5919189453126	1096.531616210938	-1025.401000976563	-402.7185058593751	1095.639526367188	-969.3682250976565	-347.9215087890626	827.739685058594	-1176.822509765625	-311.1145324707032	750.3405761718751	-1181.474243164063	-265.2386169433594	754.0086059570314	-1184.456665039063	-335.1622619628907	698.1208496093751	-1167.920532226563	-323.0490417480469	564.0378417968751	-1155.30078125	-318.3027648925782	546.5924072265626	-1023.524536132813	-282.7644348144532	342.2791442871094	-1113.748779296875	-354.5838623046876	301.2055358886719	-1146.632446289063	-310.7022399902344	295.9552917480469	-1136.518310546875	-297.3377075195313	218.8206176757813	-1100.514282226563	-355.8467407226563	127.0938415527344	-1104.79638671875	-319.8158264160157	144.1596374511719	-1027.2001953125	-413.5945129394532	97.25773620605472	-1049.265014648438	-199.1619262695313	60.97505950927736	-1050.914306640625	-205.1425323486329	53.09053039550783	-1096.671142578125	-261.5060424804688	38.33877182006837	-1137.87158203125	-283.1226196289063	813.0100708007815	-824.1757812500002	-252.9305877685547	754.5028076171876	-828.2174072265627	-220.2259674072266	754.2277832031251	-833.5068969726565	-287.5664978027344	679.8568725585939	-844.8264770507815	-292.0187072753907	543.7489624023439	-859.0266723632815	-279.2844238281251	540.3209838867189	-992.2286376953127	-250.3562164306641	356.0563049316407	-887.0556640625002	-324.9569702148438	281.7316589355469	-870.1563720703127	-279.7247924804688	275.6255187988282	-877.2950439453127	-263.5380249023438	230.4080657958985	-911.872497558594	-320.0456848144532	120.1906356811524	-901.0389404296877	-294.8923034667969	135.8739318847657	-985.171081542969	-378.0861511230469	87.59459686279298	-961.2766113281252	-160.1683959960938	57.17269897460939	-963.7046508789065	-166.6867828369141	56.75712203979494	-924.1059570312502	-211.7380523681641	34.9480209350586	-873.5888671875002	nan	nan	nan	
4	0.015	-136.9623260498047	1776.909545898438	-1043.235961914063	-264.6089477539063	1741.021606445313	-1092.623046875	-327.4272155761719	1704.678466796875	-964.1353759765627	-342.2644348144532	1577.399047851563	-1013.365295410156	-385.5444946289064	1259.479370117188	-1003.273132324219	-220.1127929687501	1499.546264648438	-1011.808959960938	-285.7365417480469	1535.7275390625	-1186.540161132813	-329.7867431640626	1324.6748046875	-1260.760131835938	-289.8573608398438	1298.628173828125	-1250.14404296875	-332.4900207519532	1255.883911132813	-1264.603271484375	-346.1682739257813	1193.765380859375	-1257.015502929688	-357.9408264160157	1186.263916015625	-1190.688598632813	-203.6294403076172	945.880310058594	-1251.685546875	-263.0850524902344	938.3806762695315	-1300.8310546875	-177.4943237304688	862.7373657226565	-1283.030517578125	-275.1672058105469	1519.225952148438	-836.9301757812502	-348.8643798828126	1313.85400390625	-757.3634033203126	-310.3968200683594	1286.495361328125	-763.0642089843751	-353.5048828125001	1245.299926757813	-753.9166870117189	-350.6131286621094	1180.378173828125	-751.1737670898439	-368.9465942382813	1170.478637695313	-826.7437744140627	-183.5887603759766	943.8308105468752	-769.424011230469	-246.7568817138672	920.7363281250002	-737.6912231445314	-148.8660888671875	862.3267211914065	-742.6431274414064	-215.369125366211	1079.832885742188	-1120.881591796875	-206.5064849853516	1080.212158203125	-888.3272705078127	-395.4965820312501	1125.65234375	-997.0093994140627	-402.8507690429689	1096.334594726563	-1024.904663085938	-402.6172180175782	1095.659545898438	-969.414489746094	-347.7790832519532	827.744812011719	-1176.791748046875	-311.0398864746094	750.3426513671876	-1181.468505859375	-265.3023986816407	753.9040527343751	-1184.67138671875	-335.1404418945313	698.1367187500001	-1167.915283203125	-323.0502929687501	564.0202026367189	-1155.318481445313	-318.9955444335938	546.4818115234376	-1023.017822265625	-282.7865295410157	342.2886352539063	-1113.767211914063	-354.6457214355469	301.2163085937501	-1146.589721679688	-310.7015991210938	295.9276733398438	-1136.588012695313	-297.3733520507813	218.8701171875001	-1100.486328125	-355.8386535644532	127.0952453613282	-1104.801879882813	-319.8299865722657	144.1845092773438	-1027.185302734375	-413.6610412597657	97.2714538574219	-1049.293212890625	-199.1717376708985	61.02801513671876	-1050.895751953125	-204.7352142333985	54.18791580200197	-1096.689697265625	-261.4941406250001	38.33591461181641	-1137.835327148438	-283.1427001953126	812.9932250976565	-824.1758422851565	-253.1676483154297	754.4078979492189	-828.119567871094	-220.2649688720704	754.2053833007814	-833.4893188476565	-287.6754455566407	679.8652954101564	-844.7713012695315	-292.0674133300782	543.7405395507814	-859.0134887695315	-279.3395996093751	540.2680664062501	-992.1760253906252	-250.4759826660157	356.0553894042969	-886.9757080078127	-325.0448608398438	281.7119140625001	-870.094177246094	-279.9497070312501	275.6416320800782	-877.1621093750002	-263.5621337890626	230.3819732666016	-911.7486572265627	-320.0630187988282	120.1542282104492	-900.9807128906252	-294.9371032714844	135.9072265625	-985.1145629882815	-378.0517578125001	87.5858840942383	-961.269226074219	-159.2189636230469	56.95633697509767	-963.3091430664065	-166.7458648681641	56.45434951782228	-924.2964477539065	-211.7409057617188	34.91178512573243	-873.6156005859377	nan	nan	nan	
